<svg width="220" height="323" viewBox="0 0 220 323" fill="none" xmlns="http://www.w3.org/2000/svg">
  <path d="M107.5 322.5V214.5" stroke="#2F7E49" stroke-width="12" stroke-linecap="round"/>
  <path d="M110.203 18.0196C106.806 14.9935 101.696 14.9935 98.2992 18.0196L20.401 87.4216C18.3218 89.2737 17.1289 91.927 17.1289 94.7112V194.093C17.1289 197.523 18.9208 200.702 21.854 202.479L100.752 250.275C103.932 252.201 107.841 252.201 111.021 250.275L189.919 202.479C192.852 200.702 194.644 197.523 194.644 194.093V94.7112C194.644 91.927 193.451 89.2737 191.372 87.4216L113.474 18.0196H110.203Z" fill="#3C824B"/>
  <path d="M106.998 50.918V118.94" stroke="#6DA46C" stroke-width="10" stroke-linecap="round"/>
  <path d="M74.7969 90.7568L98.8415 114.801" stroke="#6DA46C" stroke-width="10" stroke-linecap="round"/>
  <path d="M139.197 90.7568L115.152 114.801" stroke="#6DA46C" stroke-width="10" stroke-linecap="round"/>
  <path d="M62.6367 188.491C62.6367 164.328 82.2248 144.74 106.388 144.74C130.551 144.74 150.139 164.328 150.139 188.491V212.748H62.6367V188.491Z" fill="#F7C82E"/>
  <path d="M77.9805 189.354C77.9805 173.664 90.6992 160.945 106.389 160.945C122.078 160.945 134.797 173.664 134.797 189.354V212.747H77.9805V189.354Z" fill="#F9E29D"/>
  <path d="M93.7988 191.226C93.7988 184.182 99.5094 178.472 106.553 178.472C113.597 178.472 119.307 184.182 119.307 191.226V212.748H93.7988V191.226Z" fill="#F5F5F7"/>
</svg>
